<svg width="303" height="179" viewBox="0 0 303 179" fill="none" xmlns="http://www.w3.org/2000/svg">
<g clip-path="url(#clip0_863_12)">
<path d="M72.0005 144.8C62.3594 144.872 52.8026 143.002 43.9005 139.3C35.2799 135.713 27.4609 130.443 20.9004 123.8C12.4226 115.373 6.1643 104.978 2.68466 93.5424C-0.794982 82.107 -1.38754 69.9876 0.959899 58.2673C3.30734 46.5469 8.52165 35.5906 16.137 26.3774C23.7523 17.1641 33.5314 9.98089 44.6004 5.46951C53.8129 1.75207 63.6666 -0.116747 73.6004 -0.0304935C84.6067 -0.15097 95.5134 2.06445 105.6 6.46951C115.005 10.5618 123.301 16.8348 129.8 24.7695L111.4 43.1695C107.082 37.5073 101.455 32.9776 95.0005 29.9695C88.2304 26.854 80.8524 25.2828 73.4005 25.3695C65.1179 25.2076 56.9404 27.2434 49.7004 31.2695C42.9098 35.1283 37.3333 40.8088 33.6004 47.6695C29.7271 54.6695 27.7938 62.8362 27.8004 72.1695C27.8071 81.5029 29.7071 89.7362 33.5005 96.8695C37.0711 103.761 42.4677 109.538 49.1004 113.57C55.9625 117.64 63.8232 119.718 71.8004 119.569C80.6004 119.569 88.1338 117.936 94.4005 114.67C100.588 111.493 105.624 106.457 108.8 100.269C112.134 93.9428 113.8 86.1762 113.8 76.9695L131.6 89.1695L70.2004 88.5695V64.9695H141.8V68.7695C141.8 85.5695 138.8 99.6028 132.8 110.869C126.8 122.136 118.567 130.603 108.1 136.27C97.6338 141.963 85.6005 144.806 72.0005 144.8Z" fill="white"/>
<path d="M230.2 145C220.355 145.08 210.594 143.176 201.5 139.4C192.824 135.807 184.941 130.54 178.3 123.9C171.66 117.259 166.393 109.376 162.8 100.7C155.369 82.5023 155.333 62.1228 162.7 43.8995C166.28 35.2831 171.523 27.4567 178.129 20.8677C184.735 14.2788 192.575 9.05653 201.2 5.49952C219.631 -1.83391 240.17 -1.83391 258.6 5.49952C267.24 9.06086 275.09 14.2944 281.7 20.8995C291.965 31.0366 298.973 44.0053 301.827 58.1467C304.681 72.2881 303.252 86.9595 297.722 100.284C292.192 113.609 282.814 124.981 270.786 132.947C258.757 140.912 244.627 145.109 230.2 145ZM229.8 119.6C238.874 119.6 246.74 117.6 253.4 113.6C260.058 109.612 265.49 103.869 269.1 96.9995C272.9 89.9395 274.8 81.6729 274.8 72.1995C274.876 65.726 273.793 59.2911 271.6 53.1995C269.585 47.6559 266.454 42.5846 262.4 38.2995C258.403 34.1019 253.564 30.7964 248.2 28.5995C242.351 26.2643 236.098 25.1088 229.8 25.1995C221.645 25.0353 213.595 27.0735 206.5 31.0995C199.794 35.0131 194.32 40.7297 190.7 47.5995C186.9 54.6729 185 62.8729 185 72.1995C184.921 78.8123 186.039 85.3848 188.3 91.5995C190.319 97.1715 193.449 102.275 197.5 106.6C201.492 110.779 206.335 114.053 211.7 116.2C217.452 118.51 223.602 119.665 229.8 119.6Z" fill="white"/>
<path d="M179.284 132.428L199.211 145.804L180.006 174.416C178.744 176.297 176.786 177.599 174.564 178.036C172.341 178.473 170.036 178.01 168.156 176.747L162.41 172.891C160.53 171.629 159.227 169.671 158.79 167.449C158.353 165.226 158.816 162.921 160.079 161.041L179.284 132.428Z" fill="white"/>
<path fill-rule="evenodd" clip-rule="evenodd" d="M231.271 32.4481C231.282 31.0675 232.411 29.9578 233.792 29.9696C243.078 30.0491 251.956 33.7938 258.494 40.3883C265.033 46.9829 268.701 55.8933 268.7 65.1795V65.4695C268.7 66.8502 267.581 67.9695 266.2 67.9695C264.82 67.9695 263.7 66.8502 263.7 65.4695V65.1795C263.701 57.2119 260.553 49.5668 254.944 43.9087C249.334 38.2506 241.716 35.0376 233.749 34.9694C232.368 34.9576 231.259 33.8288 231.271 32.4481Z" fill="white"/>
</g>
<defs>
<clipPath id="clip0_863_12">
<rect width="302.8" height="178.2" fill="white"/>
</clipPath>
</defs>
</svg>
