<svg width="20" height="20" viewBox="0 0 20 20" fill="none" xmlns="http://www.w3.org/2000/svg">
<path d="M16.0536 3.99345C15.9013 3.99861 15.7568 4.071 15.6506 4.19528L6.68755 14.3906L2.99929 10.1953C2.94529 10.1313 2.8806 10.0802 2.80902 10.045C2.73745 10.0098 2.66041 9.99124 2.58244 9.99034C2.50447 9.98944 2.42712 10.0062 2.35492 10.0398C2.28273 10.0733 2.21714 10.1229 2.16201 10.1856C2.10687 10.2483 2.06328 10.3229 2.03381 10.405C2.00434 10.4871 1.98956 10.5751 1.99036 10.6638C1.99115 10.7525 2.00749 10.8401 2.03843 10.9216C2.06937 11.003 2.11427 11.0766 2.17052 11.138L6.27316 15.8047C6.38308 15.9296 6.53213 15.9998 6.68755 15.9998C6.84296 15.9998 6.99202 15.9296 7.10193 15.8047L16.4794 5.13799C16.5641 5.04434 16.6219 4.92378 16.6454 4.7921C16.6688 4.66042 16.6567 4.52377 16.6106 4.40004C16.5646 4.27632 16.4868 4.1713 16.3874 4.09875C16.288 4.02619 16.1716 3.98949 16.0536 3.99345Z" fill="white"/>
</svg>
