<svg width="288" height="179" viewBox="0 0 288 179" fill="none" xmlns="http://www.w3.org/2000/svg">
<g clip-path="url(#clip0_104_2)">
<path d="M70.827 145.91C61.277 145.91 52.3 144.191 43.896 140.753C35.6193 137.188 28.2977 132.222 21.931 125.855C15.6917 119.488 10.7893 112.167 7.224 103.89C3.786 95.486 2.067 86.4453 2.067 76.768C2.067 66.9633 3.84967 57.9227 7.415 49.646C10.9803 41.242 15.9463 33.9203 22.313 27.681C28.6797 21.3143 36.1287 16.412 44.66 12.974C53.1913 9.40866 62.423 7.62599 72.355 7.62599C83.433 7.62599 93.6197 9.72699 102.915 13.929C112.21 18.0037 119.914 23.7973 126.026 31.31L108.454 48.882C104.252 43.4067 99.0313 39.2047 92.792 36.276C86.5527 33.3473 79.6767 31.883 72.164 31.883C63.6327 31.883 56.0563 33.793 49.435 37.613C42.941 41.3057 37.8477 46.5263 34.155 53.275C30.4623 59.8963 28.616 67.6637 28.616 76.577C28.616 85.4903 30.3987 93.385 33.964 100.261C37.6567 107.01 42.6227 112.294 48.862 116.114C55.2287 119.934 62.4867 121.844 70.636 121.844C79.04 121.844 86.2343 120.316 92.219 117.26C98.2037 114.077 102.788 109.493 105.971 103.508C109.154 97.396 110.746 89.947 110.746 81.161L127.745 92.812L69.108 92.239V69.701H137.486V73.33C137.486 89.374 134.621 102.808 128.891 113.631C123.161 124.327 115.266 132.413 105.207 137.888C95.275 143.236 83.815 145.91 70.827 145.91ZM216.199 146.101C206.394 146.101 197.226 144.318 188.695 140.753C180.291 137.188 172.906 132.285 166.539 126.046C160.3 119.679 155.397 112.294 151.832 103.89C148.267 95.3587 146.484 86.2543 146.484 76.577C146.484 66.8997 148.203 57.9227 151.641 49.646C155.206 41.242 160.109 33.9203 166.348 27.681C172.715 21.3143 180.1 16.412 188.504 12.974C196.908 9.40866 206.012 7.62599 215.817 7.62599C225.749 7.62599 234.917 9.40866 243.321 12.974C251.725 16.412 259.047 21.3143 265.286 27.681C271.653 33.9203 276.619 41.242 280.184 49.646C283.749 58.05 285.532 67.0907 285.532 76.768C285.532 86.4453 283.749 95.486 280.184 103.89C276.619 112.294 271.653 119.679 265.286 126.046C259.047 132.285 251.725 137.188 243.321 140.753C235.044 144.318 226.004 146.101 216.199 146.101ZM215.817 121.844C224.476 121.844 231.988 119.934 238.355 116.114C244.722 112.294 249.688 107.01 253.253 100.261C256.946 93.5123 258.792 85.6177 258.792 76.577C258.792 69.9557 257.773 63.9073 255.736 58.432C253.699 52.9567 250.77 48.2453 246.95 44.298C243.13 40.2233 238.61 37.1037 233.389 34.939C228.168 32.7743 222.311 31.692 215.817 31.692C207.413 31.692 199.964 33.602 193.47 37.422C187.103 41.1147 182.074 46.3353 178.381 53.084C174.816 59.8327 173.033 67.6637 173.033 76.577C173.033 83.3257 174.052 89.5013 176.089 95.104C178.254 100.707 181.182 105.482 184.875 109.429C188.695 113.376 193.215 116.432 198.436 118.597C203.784 120.762 209.578 121.844 215.817 121.844Z" fill="white"/>
<path d="M169.062 171.802C166.708 175.541 161.769 176.664 158.03 174.31L151.364 170.114C147.625 167.76 146.502 162.821 148.856 159.082L165.06 133.34L185.266 146.06L169.062 171.802Z" fill="white"/>
<path d="M219.865 38C227.487 39.8567 246.094 44.9019 249.437 69.0405" stroke="white" stroke-width="6" stroke-linecap="round"/>
</g>
<defs>
<clipPath id="clip0_104_2">
<rect width="288" height="179" fill="white"/>
</clipPath>
</defs>
</svg>
