<svg width="675" height="129" viewBox="0 0 675 129" fill="none" xmlns="http://www.w3.org/2000/svg">
<path d="M32.8233 54.0672C34.3226 51.9306 36.3325 50.2013 38.6709 49.036C41.0092 47.8706 43.602 47.3061 46.2143 47.3937C51.8715 47.3937 56.1471 49.3381 59.0411 53.2269C61.9352 57.1157 63.3849 62.3234 63.3903 68.8501H90.7445C90.7445 60.5667 88.8369 53.3846 85.0219 47.3039C81.3183 41.3381 76.0291 36.5145 69.7424 33.3694C63.3279 30.1433 56.2339 28.493 49.0511 28.556H46.0344C37.0962 28.556 29.1718 30.4379 22.261 34.2016C15.3475 37.9522 9.66901 43.619 5.91065 50.5183C1.97022 57.5943 0 66.0246 0 75.8092V81.2672C0 96.0773 4.15027 107.657 12.4508 116.005C20.7513 124.354 31.9459 128.526 46.0344 128.52H49.0511C56.2 128.602 63.2808 127.126 69.7997 124.196C76.0764 121.323 81.3694 116.673 85.0219 110.825C88.8369 104.799 90.7445 97.331 90.7445 88.4221H64.6984C64.6984 95.4546 63.0334 100.757 59.7033 104.331C56.3733 107.904 51.817 109.691 46.0344 109.691C43.487 109.78 40.9557 109.253 38.6557 108.157C36.3557 107.06 34.3549 105.426 32.8233 103.393C29.5533 99.1938 27.9182 93.9534 27.9182 87.6715V70.9142C27.9182 64.1373 29.5533 58.5216 32.8233 54.0672Z" fill="url(#paint0_linear_33_7)"/>
<path d="M173.24 34.2055C165.78 30.3744 157.488 28.4355 149.099 28.5599H146.074C137.687 28.4358 129.399 30.3747 121.941 34.2055C114.836 37.9099 108.967 43.5997 105.051 50.5793C100.963 57.7369 98.9197 66.1482 98.9197 75.8131V81.271C98.9197 90.9414 100.963 99.3527 105.051 106.505C108.967 113.484 114.836 119.174 121.941 122.879C129.401 126.711 137.693 128.65 146.082 128.524H149.107C157.497 128.649 165.788 126.71 173.248 122.879C180.353 119.174 186.222 113.484 190.138 106.505C194.215 99.3527 196.259 90.9414 196.27 81.271V75.8131C196.27 66.1536 194.226 57.7423 190.138 50.5793C186.22 43.5985 180.348 37.9086 173.24 34.2055ZM168.335 86.1661C168.335 93.8186 166.428 99.6546 162.612 103.674C158.797 107.693 153.797 109.7 147.611 109.695C141.398 109.695 136.384 107.693 132.569 103.69C128.754 99.6872 126.846 93.8512 126.846 86.1824V70.9181C126.846 63.2655 128.754 57.4296 132.569 53.4102C136.384 49.3909 141.39 47.3867 147.587 47.3975C153.745 47.3975 158.746 49.4045 162.588 53.4184C166.43 57.4323 168.338 63.2683 168.311 70.9262L168.335 86.1661Z" fill="url(#paint1_linear_33_7)"/>
<path d="M395.646 36.4597C389.297 31.1894 381.214 28.5543 371.398 28.5543C358.825 28.5543 348.576 33.8871 340.652 44.5528L337.659 30.4388H317.066V88.2734C317.066 96.1299 311.589 102.493 304.803 102.493C298.018 102.493 292.541 96.1299 292.541 88.2734H292.467V59.4337C292.467 49.388 289.29 41.73 282.935 36.4597C276.58 31.1894 268.5 28.5543 258.695 28.5543C246.122 28.5543 235.873 33.8871 227.949 44.5528L224.932 30.4388H204.445V126.634H231.987V67.5186C231.937 65.0397 232.378 62.5752 233.284 60.2666C234.19 57.958 235.544 55.8507 237.268 54.0654C238.863 52.2995 240.814 50.8912 242.994 49.9335C245.175 48.9757 247.533 48.4905 249.915 48.5096C251.967 48.4547 254.004 48.8577 255.88 49.689C257.755 50.5204 259.421 51.7591 260.756 53.3149C263.59 56.513 265.007 60.5595 265.007 65.4545V88.2979H265.088C265.088 110.774 282.894 129 304.861 129C326.827 129 344.625 110.774 344.625 88.2979V67.5186C344.577 65.0385 345.02 62.5734 345.929 60.2648C346.838 57.9561 348.195 55.8494 349.922 54.0654C351.517 52.2999 353.469 50.8918 355.649 49.9342C357.829 48.9765 360.187 48.491 362.569 48.5096C364.621 48.457 366.66 48.8609 368.536 49.692C370.413 50.5232 372.08 51.7607 373.418 53.3149C376.246 56.513 377.661 60.5595 377.661 65.4545V126.642H405.203V59.4337C405.181 49.388 401.995 41.73 395.646 36.4597Z" fill="url(#paint2_linear_33_7)"/>
<path d="M485.221 33.366C478.45 30.1377 471.029 28.4943 463.525 28.5607H460.541C452.179 28.4274 443.915 30.3672 436.489 34.2063C429.412 37.9478 423.552 43.6284 419.599 50.5801C415.463 57.7377 413.389 66.149 413.378 75.8139V81.2718C413.378 91.0619 415.422 99.4922 419.509 106.563C423.441 113.516 429.307 119.184 436.399 122.879C443.86 126.712 452.151 128.65 460.541 128.525H463.565C470.963 128.589 478.301 127.203 485.164 124.446C491.578 121.877 497.103 117.5 501.065 111.849C505.087 106.139 507.101 99.0679 507.106 90.6376H480.692C480.692 96.9196 479.025 101.66 475.689 104.858C472.354 108.056 467.795 109.652 462.012 109.647C455.597 109.647 450.537 107.547 446.831 103.348C443.125 99.1495 441.269 93.9091 441.263 87.6272V83.1075H507.286V68.8467C507.286 60.5632 505.275 53.3811 501.253 47.3004C497.296 41.272 491.748 36.4502 485.221 33.366ZM441.263 68.0961C441.765 62.0752 443.746 57.1177 447.207 53.2234C448.882 51.3176 450.96 49.8066 453.291 48.7992C455.623 47.7919 458.149 47.3135 460.688 47.3983C467.228 47.3983 471.975 49.2503 474.929 52.9542C477.883 56.6581 479.354 61.7054 479.343 68.0961H441.263Z" fill="url(#paint3_linear_33_7)"/>
<path d="M548.342 54.0672C549.844 51.9311 551.855 50.2022 554.195 49.037C556.534 47.8718 559.128 47.307 561.741 47.3937C567.398 47.3937 571.674 49.3381 574.568 53.2269C577.462 57.1157 578.906 62.3235 578.901 68.8502H606.239C606.239 60.5667 604.331 53.3846 600.516 47.304C596.812 41.3332 591.52 36.5063 585.228 33.3613C578.815 30.1398 571.724 28.4924 564.545 28.556H561.52C552.593 28.556 544.671 30.4379 537.755 34.2016C530.841 37.9515 525.162 43.6184 521.405 50.5183C517.442 57.6161 515.461 66.0464 515.461 75.8092V81.2672C515.461 96.0773 519.612 107.657 527.912 116.005C536.213 124.354 547.405 128.526 561.488 128.52H564.545C571.694 128.602 578.775 127.126 585.294 124.196C591.574 121.328 596.868 116.678 600.516 110.825C604.331 104.799 606.239 97.331 606.239 88.4221H580.225C580.225 95.4546 578.557 100.758 575.222 104.331C571.886 107.904 567.327 109.691 561.545 109.691C558.999 109.778 556.469 109.251 554.171 108.154C551.873 107.058 549.873 105.424 548.342 103.393C545.072 99.1938 543.437 93.9534 543.437 87.6715V70.9142C543.437 64.1373 545.072 58.5217 548.342 54.0672Z" fill="url(#paint4_linear_33_7)"/>
<path d="M674.984 49.5212V30.6917H652.543V0H635.563L625.933 30.6917H614.414V49.5212H625.042V101.857C625.042 111.527 627.494 118.429 632.399 122.563C637.304 126.697 644.599 128.766 654.284 128.772C657.911 128.72 661.528 128.376 665.1 127.744C668.479 127.24 671.797 126.387 675 125.198V107.503C673.108 108.243 671.151 108.808 669.155 109.191C667.234 109.637 665.273 109.888 663.301 109.942C660.031 109.942 657.426 109.064 655.486 107.307C653.524 105.561 652.559 102.167 652.559 97.1416V49.5212H674.984Z" fill="url(#paint5_linear_33_7)"/>
<defs>
<linearGradient id="paint0_linear_33_7" x1="-3.2706e-06" y1="75" x2="675" y2="79.5" gradientUnits="userSpaceOnUse">
<stop stop-color="#8CB9FF"/>
<stop offset="0.191205" stop-color="#5697FF"/>
<stop offset="0.397072" stop-color="#C11CAD"/>
<stop offset="0.598849" stop-color="#FF006E"/>
<stop offset="0.813164" stop-color="#FD2B3B"/>
<stop offset="1" stop-color="#FB5607"/>
</linearGradient>
<linearGradient id="paint1_linear_33_7" x1="-3.2706e-06" y1="75" x2="675" y2="79.5" gradientUnits="userSpaceOnUse">
<stop stop-color="#8CB9FF"/>
<stop offset="0.191205" stop-color="#5697FF"/>
<stop offset="0.397072" stop-color="#C11CAD"/>
<stop offset="0.598849" stop-color="#FF006E"/>
<stop offset="0.813164" stop-color="#FD2B3B"/>
<stop offset="1" stop-color="#FB5607"/>
</linearGradient>
<linearGradient id="paint2_linear_33_7" x1="-3.2706e-06" y1="75" x2="675" y2="79.5" gradientUnits="userSpaceOnUse">
<stop stop-color="#8CB9FF"/>
<stop offset="0.191205" stop-color="#5697FF"/>
<stop offset="0.397072" stop-color="#C11CAD"/>
<stop offset="0.598849" stop-color="#FF006E"/>
<stop offset="0.813164" stop-color="#FD2B3B"/>
<stop offset="1" stop-color="#FB5607"/>
</linearGradient>
<linearGradient id="paint3_linear_33_7" x1="-3.2706e-06" y1="75" x2="675" y2="79.5" gradientUnits="userSpaceOnUse">
<stop stop-color="#8CB9FF"/>
<stop offset="0.191205" stop-color="#5697FF"/>
<stop offset="0.397072" stop-color="#C11CAD"/>
<stop offset="0.598849" stop-color="#FF006E"/>
<stop offset="0.813164" stop-color="#FD2B3B"/>
<stop offset="1" stop-color="#FB5607"/>
</linearGradient>
<linearGradient id="paint4_linear_33_7" x1="-3.2706e-06" y1="75" x2="675" y2="79.5" gradientUnits="userSpaceOnUse">
<stop stop-color="#8CB9FF"/>
<stop offset="0.191205" stop-color="#5697FF"/>
<stop offset="0.397072" stop-color="#C11CAD"/>
<stop offset="0.598849" stop-color="#FF006E"/>
<stop offset="0.813164" stop-color="#FD2B3B"/>
<stop offset="1" stop-color="#FB5607"/>
</linearGradient>
<linearGradient id="paint5_linear_33_7" x1="-3.2706e-06" y1="75" x2="675" y2="79.5" gradientUnits="userSpaceOnUse">
<stop stop-color="#8CB9FF"/>
<stop offset="0.191205" stop-color="#5697FF"/>
<stop offset="0.397072" stop-color="#C11CAD"/>
<stop offset="0.598849" stop-color="#FF006E"/>
<stop offset="0.813164" stop-color="#FD2B3B"/>
<stop offset="1" stop-color="#FB5607"/>
</linearGradient>
</defs>
</svg>
