<svg width="303" height="179" viewBox="0 0 303 179" fill="none" xmlns="http://www.w3.org/2000/svg">
<g clip-path="url(#clip0_861_12)">
<path d="M72 144.8C62.359 144.872 52.8021 143.002 43.9 139.3C35.2794 135.713 27.4604 130.443 20.9 123.8C12.4222 115.373 6.16382 104.978 2.68417 93.5424C-0.79547 82.1069 -1.38803 69.9876 0.959411 58.2673C3.30685 46.5469 8.52116 35.5906 16.1365 26.3774C23.7518 17.1641 33.5309 9.98089 44.5999 5.46951C53.8124 1.75207 63.6661 -0.116747 73.5999 -0.0304935C84.6062 -0.15097 95.5129 2.06445 105.6 6.46951C115.005 10.5618 123.3 16.8348 129.8 24.7695L111.4 43.1695C107.082 37.5073 101.454 32.9776 95 29.9695C88.2299 26.854 80.8519 25.2828 73.4 25.3695C65.1174 25.2076 56.9399 27.2434 49.7 31.2695C42.9093 35.1283 37.3328 40.8088 33.5999 47.6695C29.7266 54.6695 27.7933 62.8362 27.8 72.1695C27.8066 81.5029 29.7066 89.7362 33.5 96.8695C37.0706 103.761 42.4672 109.538 49.0999 113.57C55.962 117.64 63.8228 119.718 71.8 119.569C80.6 119.569 88.1333 117.936 94.4 114.67C100.587 111.493 105.623 106.457 108.8 100.269C112.133 93.9428 113.8 86.1762 113.8 76.9695L131.6 89.1695L70.2 88.5695V64.9695H141.8V68.7695C141.8 85.5695 138.8 99.6028 132.8 110.869C126.8 122.136 118.567 130.603 108.1 136.27C97.6333 141.963 85.6 144.806 72 144.8Z" fill="#24729E"/>
<path d="M230.2 145C220.354 145.08 210.593 143.176 201.5 139.4C192.824 135.807 184.94 130.54 178.3 123.9C171.66 117.259 166.393 109.376 162.8 100.7C155.368 82.5023 155.332 62.1228 162.7 43.8995C166.279 35.2831 171.522 27.4567 178.128 20.8677C184.734 14.2788 192.574 9.05653 201.2 5.49952C219.631 -1.83391 240.169 -1.83391 258.6 5.49952C267.239 9.06086 275.09 14.2944 281.7 20.8995C291.965 31.0366 298.972 44.0053 301.826 58.1467C304.68 72.2881 303.251 86.9595 297.722 100.284C292.192 113.609 282.813 124.981 270.785 132.947C258.757 140.912 244.626 145.109 230.2 145ZM229.8 119.6C238.873 119.6 246.74 117.6 253.4 113.6C260.058 109.612 265.49 103.869 269.1 96.9995C272.9 89.9395 274.8 81.6729 274.8 72.1995C274.876 65.726 273.792 59.2911 271.6 53.1995C269.585 47.6559 266.453 42.5846 262.4 38.2995C258.403 34.1019 253.564 30.7964 248.2 28.5995C242.351 26.2643 236.097 25.1088 229.8 25.1995C221.644 25.0353 213.595 27.0735 206.5 31.0995C199.793 35.0131 194.319 40.7297 190.7 47.5995C186.9 54.6729 185 62.8729 185 72.1995C184.921 78.8123 186.039 85.3848 188.3 91.5995C190.318 97.1715 193.448 102.275 197.5 106.6C201.492 110.779 206.334 114.053 211.7 116.2C217.452 118.51 223.602 119.665 229.8 119.6Z" fill="#24729E"/>
<path d="M179.283 132.428L199.21 145.804L180.006 174.416C178.743 176.297 176.786 177.599 174.563 178.036C172.341 178.473 170.036 178.01 168.155 176.747L162.41 172.891C160.529 171.629 159.227 169.671 158.79 167.449C158.352 165.226 158.816 162.921 160.078 161.041L179.283 132.428Z" fill="#24729E"/>
<path fill-rule="evenodd" clip-rule="evenodd" d="M231.27 32.4481C231.282 31.0675 232.411 29.9578 233.791 29.9696C243.077 30.0491 251.956 33.7938 258.494 40.3883C265.032 46.9829 268.7 55.8932 268.7 65.1795V65.4695C268.7 66.8502 267.581 67.9695 266.2 67.9695C264.819 67.9695 263.7 66.8502 263.7 65.4695V65.1795C263.7 57.2119 260.553 49.5668 254.943 43.9087C249.334 38.2506 241.716 35.0376 233.749 34.9694C232.368 34.9576 231.258 33.8288 231.27 32.4481Z" fill="#24729E"/>
</g>
<defs>
<clipPath id="clip0_861_12">
<rect width="302.8" height="178.2" fill="white"/>
</clipPath>
</defs>
</svg>
