<svg width="22" height="18" viewBox="0 0 22 18" fill="none" xmlns="http://www.w3.org/2000/svg">
<path d="M4.19054 12.257V9.53324H6.91433V12.257H4.19054ZM17.8095 2.03467C17.8073 1.49429 17.5911 0.976782 17.2082 0.595441C16.8254 0.2141 16.307 -4.323e-06 15.7666 0H2.04284C1.50104 0 0.98144 0.215227 0.598333 0.598333C0.215227 0.98144 0 1.50104 0 2.04284V14.2999C0 15.2029 0.358712 16.0689 0.997222 16.7074C1.63573 17.3459 2.50174 17.7046 3.40473 17.7046H18.5953C19.4983 17.7046 20.3643 17.3459 21.0028 16.7074C21.6413 16.0689 22 15.2029 22 14.2999V6.12851C22 5.58672 21.7848 5.06712 21.4017 4.68401C21.0186 4.3009 20.499 4.08568 19.9572 4.08568H19.1714V13.9322C19.1714 14.1128 19.0996 14.286 18.9719 14.4137C18.8442 14.5414 18.671 14.6131 18.4904 14.6131C18.3098 14.6131 18.1366 14.5414 18.0089 14.4137C17.8812 14.286 17.8095 14.1128 17.8095 13.9322V2.03603V2.03467ZM2.82865 4.76662C2.82865 4.58602 2.90039 4.41282 3.02809 4.28512C3.1558 4.15742 3.329 4.08568 3.5096 4.08568H14.4047C14.5853 4.08568 14.7585 4.15742 14.8862 4.28512C15.0139 4.41282 15.0857 4.58602 15.0857 4.76662C15.0857 4.94722 15.0139 5.12042 14.8862 5.24812C14.7585 5.37583 14.5853 5.44757 14.4047 5.44757H3.5096C3.329 5.44757 3.1558 5.37583 3.02809 5.24812C2.90039 5.12042 2.82865 4.94722 2.82865 4.76662ZM10.3191 8.17135H14.4047C14.5853 8.17135 14.7585 8.24309 14.8862 8.3708C15.0139 8.4985 15.0857 8.6717 15.0857 8.8523C15.0857 9.0329 15.0139 9.2061 14.8862 9.3338C14.7585 9.4615 14.5853 9.53324 14.4047 9.53324H10.3191C10.1385 9.53324 9.96525 9.4615 9.83755 9.3338C9.70985 9.2061 9.63811 9.0329 9.63811 8.8523C9.63811 8.6717 9.70985 8.4985 9.83755 8.3708C9.96525 8.24309 10.1385 8.17135 10.3191 8.17135ZM9.63811 12.938C9.63811 12.7574 9.70985 12.5842 9.83755 12.4565C9.96525 12.3288 10.1385 12.257 10.3191 12.257H14.4047C14.5853 12.257 14.7585 12.3288 14.8862 12.4565C15.0139 12.5842 15.0857 12.7574 15.0857 12.938C15.0857 13.1186 15.0139 13.2918 14.8862 13.4195C14.7585 13.5472 14.5853 13.6189 14.4047 13.6189H10.3191C10.1385 13.6189 9.96525 13.5472 9.83755 13.4195C9.70985 13.2918 9.63811 13.1186 9.63811 12.938ZM3.5096 8.17135H7.59527C7.77587 8.17135 7.94907 8.24309 8.07677 8.3708C8.20447 8.4985 8.27622 8.6717 8.27622 8.8523V12.938C8.27622 13.1186 8.20447 13.2918 8.07677 13.4195C7.94907 13.5472 7.77587 13.6189 7.59527 13.6189H3.5096C3.329 13.6189 3.1558 13.5472 3.02809 13.4195C2.90039 13.2918 2.82865 13.1186 2.82865 12.938V8.8523C2.82865 8.6717 2.90039 8.4985 3.02809 8.3708C3.1558 8.24309 3.329 8.17135 3.5096 8.17135Z" fill="#CDCDCD"/>
</svg>
