<svg width="20" height="20" viewBox="0 0 20 20" fill="none" xmlns="http://www.w3.org/2000/svg">
<path d="M18.2499 15.6278L18.061 15.4611C17.5251 14.9836 17.0561 14.4361 16.6666 13.8333C16.2411 13.0014 15.9861 12.0929 15.9166 11.1611V8.41664C15.9202 6.95309 15.3893 5.53857 14.4236 4.43885C13.4579 3.33912 12.1239 2.6299 10.6721 2.44442V1.72775C10.6721 1.53105 10.594 1.3424 10.4549 1.20331C10.3158 1.06422 10.1271 0.986084 9.93045 0.986084C9.73374 0.986084 9.5451 1.06422 9.40601 1.20331C9.26692 1.3424 9.18878 1.53105 9.18878 1.72775V2.45553C7.75003 2.65438 6.4321 3.36789 5.47907 4.46392C4.52605 5.55995 4.00252 6.96422 4.00545 8.41664V11.1611C3.93587 12.0929 3.68088 13.0014 3.25545 13.8333C2.8726 14.4346 2.41111 14.9821 1.88322 15.4611L1.69434 15.6278V17.1944H18.2499V15.6278Z" fill="#CDCDCD"/>
<path d="M8.51123 17.7778C8.55995 18.13 8.73445 18.4526 9.0025 18.6861C9.27055 18.9197 9.61406 19.0483 9.96956 19.0483C10.3251 19.0483 10.6686 18.9197 10.9366 18.6861C11.2047 18.4526 11.3792 18.13 11.4279 17.7778H8.51123Z" fill="#CDCDCD"/>
</svg>
