<svg width="303" height="179" viewBox="0 0 303 179" fill="none" xmlns="http://www.w3.org/2000/svg">
<g clip-path="url(#clip0_861_12)">
<path d="M72.0005 144.8C62.3594 144.873 52.8026 143.002 43.9005 139.3C35.2799 135.713 27.4609 130.444 20.9004 123.8C12.4226 115.374 6.1643 104.978 2.68466 93.5429C-0.794982 82.1074 -1.38754 69.9881 0.959899 58.2678C3.30734 46.5474 8.52165 35.5911 16.137 26.3779C23.7523 17.1646 33.5314 9.98138 44.6004 5.47C53.8129 1.75256 63.6666 -0.116259 73.6004 -0.0300052C84.6067 -0.150481 95.5134 2.06494 105.6 6.47C115.005 10.5623 123.301 16.8353 129.8 24.77L111.4 43.17C107.082 37.5078 101.455 32.9781 95.0005 29.97C88.2304 26.8545 80.8524 25.2833 73.4005 25.37C65.1179 25.2081 56.9404 27.2439 49.7004 31.27C42.9098 35.1288 37.3333 40.8093 33.6004 47.67C29.7271 54.67 27.7938 62.8367 27.8004 72.17C27.8071 81.5033 29.7071 89.7367 33.5005 96.87C37.0711 103.762 42.4677 109.539 49.1004 113.57C55.9625 117.641 63.8232 119.718 71.8004 119.57C80.6004 119.57 88.1338 117.937 94.4005 114.67C100.588 111.493 105.624 106.457 108.8 100.27C112.134 93.9433 113.8 86.1767 113.8 76.97L131.6 89.17L70.2004 88.57V64.97H141.8V68.77C141.8 85.57 138.8 99.6033 132.8 110.87C126.8 122.137 118.567 130.603 108.1 136.27C97.6338 141.963 85.6005 144.807 72.0005 144.8Z" fill="#242424"/>
<path d="M230.2 145C220.355 145.081 210.594 143.176 201.5 139.4C192.824 135.807 184.941 130.54 178.3 123.9C171.66 117.26 166.393 109.376 162.8 100.7C155.369 82.5027 155.333 62.1233 162.7 43.9C166.28 35.2836 171.523 27.4572 178.129 20.8682C184.735 14.2793 192.575 9.05702 201.2 5.50001C219.631 -1.83342 240.17 -1.83342 258.6 5.50001C267.24 9.06135 275.09 14.2949 281.7 20.9C291.965 31.0371 298.973 44.0058 301.827 58.1472C304.681 72.2886 303.252 86.96 297.722 100.285C292.192 113.609 282.814 124.982 270.786 132.947C258.757 140.913 244.627 145.109 230.2 145ZM229.8 119.6C238.874 119.6 246.74 117.6 253.4 113.6C260.058 109.613 265.49 103.87 269.1 97C272.9 89.94 274.8 81.6734 274.8 72.2C274.876 65.7264 273.793 59.2916 271.6 53.2C269.585 47.6564 266.454 42.5851 262.4 38.3C258.403 34.1024 253.564 30.7969 248.2 28.6C242.351 26.2648 236.098 25.1093 229.8 25.2C221.645 25.0358 213.595 27.074 206.5 31.1C199.794 35.0136 194.32 40.7302 190.7 47.6C186.9 54.6733 185 62.8734 185 72.2C184.921 78.8128 186.039 85.3853 188.3 91.6C190.319 97.172 193.449 102.275 197.5 106.6C201.492 110.78 206.335 114.053 211.7 116.2C217.452 118.51 223.602 119.665 229.8 119.6Z" fill="#242424"/>
<path d="M179.284 132.429L199.211 145.804L180.006 174.417C178.744 176.297 176.786 177.599 174.564 178.037C172.341 178.474 170.036 178.01 168.156 176.748L162.41 172.891C160.53 171.629 159.227 169.671 158.79 167.449C158.353 165.227 158.816 162.922 160.079 161.041L179.284 132.429Z" fill="#242424"/>
<path fill-rule="evenodd" clip-rule="evenodd" d="M231.271 32.4486C231.282 31.0679 232.411 29.9583 233.792 29.9701C243.078 30.0496 251.956 33.7943 258.494 40.3888C265.033 46.9834 268.701 55.8937 268.7 65.18V65.47C268.7 66.8507 267.581 67.97 266.2 67.97C264.82 67.97 263.7 66.8507 263.7 65.47V65.18C263.701 57.2124 260.553 49.5672 254.944 43.9091C249.334 38.251 241.716 35.0381 233.749 34.9699C232.368 34.9581 231.259 33.8293 231.271 32.4486Z" fill="#242424"/>
</g>
<defs>
<clipPath id="clip0_861_12">
<rect width="302.8" height="178.2" fill="white"/>
</clipPath>
</defs>
</svg>
