<svg width="185" height="93" viewBox="0 0 185 93" fill="none" xmlns="http://www.w3.org/2000/svg">
<path d="M175.27 7.24251C169.449 2.41417 162.04 0 153.042 0C141.517 0 132.122 4.88563 124.857 14.6569L122.115 1.72654H103.237V54.7112C103.237 61.9088 98.2163 67.7387 91.9963 67.7387C85.7762 67.7387 80.7553 61.9088 80.7553 54.7112H80.6878V28.2899C80.6878 19.0866 77.7752 12.0708 71.9498 7.24251C66.1245 2.41417 58.7179 0 49.7301 0C38.2044 0 28.8094 4.88563 21.5452 14.6569L18.7799 1.72654H0V89.8549H25.2473V35.6968C25.2012 33.4257 25.6052 31.168 26.4359 29.053C27.2667 26.938 28.5079 25.0074 30.0884 23.3718C31.55 21.754 33.339 20.4637 35.3375 19.5864C37.3359 18.709 39.4982 18.2644 41.6816 18.2819C43.5621 18.2316 45.43 18.6008 47.1492 19.3624C48.8684 20.124 50.3953 21.2589 51.6186 22.6842C54.2165 25.6141 55.5155 29.3213 55.5155 33.8058V54.7336H55.5905C55.5905 75.3251 71.9124 92.0224 92.0487 92.0224C112.185 92.0224 128.5 75.3251 128.5 54.7336V35.6968C128.455 33.4247 128.862 31.1664 129.695 29.0513C130.528 26.9362 131.772 25.0062 133.356 23.3718C134.817 21.7543 136.607 20.4644 138.605 19.587C140.603 18.7096 142.765 18.2648 144.949 18.2819C146.83 18.2337 148.699 18.6037 150.419 19.3652C152.139 20.1266 153.667 21.2604 154.893 22.6842C157.486 25.6141 158.783 29.3213 158.783 33.8058V89.8624H184.03V28.2899C184.01 19.0866 181.09 12.0708 175.27 7.24251Z" fill="url(#paint0_linear_33_21)"/>
<defs>
<linearGradient id="paint0_linear_33_21" x1="-2.76804e-07" y1="46" x2="184" y2="46" gradientUnits="userSpaceOnUse">
<stop offset="0.369792" stop-color="#C11CAD"/>
<stop offset="0.604167" stop-color="#FF006E"/>
</linearGradient>
</defs>
</svg>
