<svg width="58" height="58" viewBox="0 0 58 58" fill="none" xmlns="http://www.w3.org/2000/svg">
<path d="M18.6666 26.4173C17.9814 26.4173 17.3244 26.6895 16.8399 27.174C16.3554 27.6584 16.0833 28.3155 16.0833 29.0007C16.0833 29.6858 16.3554 30.3429 16.8399 30.8273C17.3244 31.3118 17.9814 31.584 18.6666 31.584H39.3333C40.0184 31.584 40.6755 31.3118 41.1599 30.8273C41.6444 30.3429 41.9166 29.6858 41.9166 29.0007C41.9166 28.3155 41.6444 27.6584 41.1599 27.174C40.6755 26.6895 40.0184 26.4173 39.3333 26.4173H18.6666Z" fill="#CC1E1E"/>
<path fill-rule="evenodd" clip-rule="evenodd" d="M57.4166 29.0007C57.4166 44.6944 44.6937 57.4173 28.9999 57.4173C13.3062 57.4173 0.583252 44.6944 0.583252 29.0007C0.583252 13.3069 13.3062 0.583984 28.9999 0.583984C44.6937 0.583984 57.4166 13.3069 57.4166 29.0007ZM52.2499 29.0007C52.2499 32.0539 51.6485 35.0772 50.4801 37.898C49.3117 40.7189 47.5991 43.2819 45.4401 45.4409C43.2812 47.5998 40.7181 49.3124 37.8973 50.4809C35.0765 51.6493 32.0532 52.2506 28.9999 52.2506C25.9467 52.2506 22.9233 51.6493 20.1025 50.4809C17.2817 49.3124 14.7186 47.5998 12.5597 45.4409C10.4007 43.2819 8.68814 40.7189 7.51972 37.898C6.3513 35.0772 5.74992 32.0539 5.74992 29.0007C5.74992 22.8344 8.19946 16.9206 12.5597 12.5604C16.9199 8.2002 22.8336 5.75065 28.9999 5.75065C35.1662 5.75065 41.0799 8.2002 45.4401 12.5604C49.8004 16.9206 52.2499 22.8344 52.2499 29.0007Z" fill="#CC1E1E"/>
</svg>
