<svg width="58" height="58" viewBox="0 0 58 58" fill="none" xmlns="http://www.w3.org/2000/svg">
<path d="M27.4998 4.47852C21.5581 4.47609 15.8456 6.7711 11.557 10.8835C7.26848 14.996 4.73606 20.6073 4.48945 26.5439C4.24283 32.4804 6.30113 38.2825 10.2338 42.7364C14.1665 47.1904 19.669 49.9513 25.5905 50.4416L24.9567 52.9766C24.8356 53.4573 24.7773 53.9516 24.7834 54.4473C11.1009 53.085 0.416504 41.5394 0.416504 27.4994C0.416504 12.5412 12.5417 0.416016 27.4998 0.416016C41.7728 0.416016 53.47 11.4579 54.5073 25.4681C53.4278 25.0216 52.2711 24.7916 51.103 24.791H51.0975C50.8538 24.791 50.61 24.8018 50.3663 24.8208C49.7093 19.2173 47.0176 14.0502 42.8024 10.3002C38.5871 6.55029 33.1417 4.47862 27.4998 4.47852Z" fill="#24729E"/>
<path d="M51.103 27.4993H51.0975C49.5132 27.4993 47.9288 28.1033 46.7236 29.3139L30.739 45.2985C29.8064 46.2299 29.1445 47.3973 28.8242 48.6758L27.5838 53.6348C27.4604 54.1282 27.467 54.6451 27.6028 55.1352C27.7387 55.6253 27.9992 56.0719 28.3589 56.4313C28.7187 56.7908 29.1654 57.051 29.6556 57.1864C30.1458 57.3219 30.6628 57.3281 31.1561 57.2044L36.1123 55.9666C37.3918 55.6468 38.5602 54.9849 39.4923 54.0518L55.4769 38.0673C56.3435 37.2021 56.9338 36.0993 57.1734 34.8984C57.4129 33.6976 57.2908 32.4526 56.8225 31.3212C56.3542 30.1898 55.5608 29.2227 54.5427 28.5424C53.5245 27.8621 52.3275 27.4991 51.103 27.4993Z" fill="#24729E"/>
</svg>
