<svg width="60" height="60" viewBox="0 0 60 60" fill="none" xmlns="http://www.w3.org/2000/svg">
<path d="M30 56.25C23.0381 56.25 16.3613 53.4844 11.4384 48.5616C6.51562 43.6387 3.75 36.9619 3.75 30C3.75 23.0381 6.51562 16.3613 11.4384 11.4384C16.3613 6.51562 23.0381 3.75 30 3.75C36.9619 3.75 43.6387 6.51562 48.5616 11.4384C53.4844 16.3613 56.25 23.0381 56.25 30C56.25 36.9619 53.4844 43.6387 48.5616 48.5616C43.6387 53.4844 36.9619 56.25 30 56.25ZM30 60C37.9565 60 45.5871 56.8393 51.2132 51.2132C56.8393 45.5871 60 37.9565 60 30C60 22.0435 56.8393 14.4129 51.2132 8.7868C45.5871 3.16071 37.9565 0 30 0C22.0435 0 14.4129 3.16071 8.7868 8.7868C3.16071 14.4129 0 22.0435 0 30C0 37.9565 3.16071 45.5871 8.7868 51.2132C14.4129 56.8393 22.0435 60 30 60Z" fill="#61BAB5"/>
<path d="M41.1373 18.6376C41.1106 18.6635 41.0855 18.6911 41.0623 18.7201L28.0386 35.3139L20.1898 27.4614C19.6566 26.9646 18.9515 26.6941 18.2228 26.707C17.4942 26.7198 16.799 27.015 16.2837 27.5303C15.7684 28.0456 15.4733 28.7408 15.4604 29.4694C15.4475 30.1981 15.718 30.9032 16.2148 31.4364L26.1373 41.3626C26.4046 41.6295 26.7229 41.8397 27.0732 41.9808C27.4236 42.122 27.7987 42.1911 28.1763 42.1841C28.554 42.1771 28.9263 42.0941 29.2712 41.9401C29.616 41.7861 29.9263 41.5642 30.1836 41.2876L45.1536 22.5751C45.6633 22.0401 45.942 21.326 45.9294 20.5871C45.9168 19.8483 45.6139 19.1441 45.0863 18.6267C44.5586 18.1094 43.8485 17.8205 43.1095 17.8226C42.3706 17.8246 41.6621 18.1174 41.1373 18.6376Z" fill="#61BAB5"/>
</svg>
